<svg width="228" height="62" viewBox="0 0 228 62" fill="none" xmlns="http://www.w3.org/2000/svg">
<path d="M118.982 47.1667C115.482 47.1667 112.441 46.4993 109.861 45.1645C107.31 43.8 105.322 41.9016 103.898 39.4692C102.504 37.0369 101.807 34.1893 101.807 30.9264C101.807 27.6634 102.504 24.8307 103.898 22.428C105.322 19.9956 107.31 18.112 109.861 16.7772C112.441 15.4127 115.482 14.7305 118.982 14.7305C121.118 14.7305 123.075 15.0123 124.855 15.5759C126.665 16.1098 128.163 16.881 129.349 17.8896L126.546 25.4091C125.211 24.5192 124.01 23.9111 122.942 23.5848C121.874 23.2289 120.673 23.0509 119.338 23.0509C116.935 23.0509 115.081 23.7331 113.776 25.0976C112.501 26.4324 111.863 28.3754 111.863 30.9264C111.863 33.507 112.501 35.4796 113.776 36.8441C115.081 38.1789 116.935 38.8463 119.338 38.8463C120.673 38.8463 121.874 38.6832 122.942 38.3569C124.01 38.0009 125.211 37.378 126.546 36.4881L129.349 44.0077C128.163 45.0162 126.665 45.8023 124.855 46.3658C123.075 46.8998 121.118 47.1667 118.982 47.1667Z" fill="#1C9187"/>
<path d="M128.495 46.6328L143.401 15.2644H151.187L166.182 46.6328H156.571L152.833 38.1344L156.437 40.8041H138.239L141.799 38.1344L138.061 46.6328H128.495ZM147.272 25.0531L142.689 36.0432L141.354 33.5515H153.323L152.121 36.0432L147.494 25.0531H147.272Z" fill="#1C9187"/>
<path d="M179.109 47.1667C176.558 47.1667 174.095 46.8701 171.722 46.2769C169.379 45.6836 167.436 44.8827 165.894 43.8742L168.519 36.4881C169.468 37.0517 170.536 37.556 171.722 38.0009C172.909 38.4162 174.14 38.7573 175.415 39.0243C176.691 39.2616 177.952 39.3803 179.197 39.3803C180.948 39.3803 182.119 39.2023 182.713 38.8463C183.306 38.4607 183.602 38.0009 183.602 37.467C183.602 36.9627 183.41 36.5623 183.024 36.2657C182.668 35.969 181.912 35.7021 180.755 35.4648L175.104 34.3079C172.227 33.7147 170.061 32.6616 168.608 31.1488C167.184 29.636 166.472 27.6783 166.472 25.2756C166.472 23.1399 167.051 21.2859 168.207 19.7138C169.364 18.1417 170.996 16.9255 173.102 16.0653C175.208 15.1754 177.67 14.7305 180.488 14.7305C182.713 14.7305 184.819 15.0271 186.806 15.6204C188.793 16.2136 190.41 17.0145 191.656 18.023L189.031 24.9641C187.904 24.1929 186.598 23.5996 185.115 23.1844C183.662 22.7394 182.045 22.517 180.265 22.517C178.782 22.517 177.67 22.6949 176.928 23.0509C176.216 23.4068 175.86 23.9259 175.86 24.6082C175.86 25.0235 176.068 25.4091 176.483 25.765C176.899 26.121 177.7 26.4176 178.886 26.6549L184.448 27.7673C187.266 28.3309 189.387 29.3691 190.81 30.8819C192.264 32.3947 192.991 34.3376 192.991 36.7106C192.991 38.8167 192.412 40.6558 191.255 42.2279C190.099 43.8 188.482 45.0162 186.406 45.8764C184.329 46.7366 181.897 47.1667 179.109 47.1667Z" fill="#1C9187"/>
<path d="M197.288 46.6328V15.2644H206.898V26.8329H217.621V15.2644H227.232V46.6328H217.621V34.6639H206.898V46.6328H197.288Z" fill="#1C9187"/>
<path fill-rule="evenodd" clip-rule="evenodd" d="M0.867676 0.610352V61.2814H61.4599L73.5511 44.2565L85.6423 61.2814H107.415L84.1463 30.7601L106.985 0.610352H85.298L73.5257 17.3107L61.8902 0.610352H0.867676ZM45.8157 47.1678V37.5293H18.6144V31.5865L10.2943 42.5399L18.6144 53.4933V47.1678H45.8157ZM54.1886 19.1336L45.8761 8.12372V14.7239H18.5957V23.4158H45.8761V30.0957L54.1886 19.1336Z" fill="#19EBD9"/>
</svg>
